<svg width="720" height="1280" viewBox="0 0 720 1280" fill="none" xmlns="http://www.w3.org/2000/svg">
  <rect width="720" height="1280" rx="28" fill="#EEF4FF"/>
  <rect x="20" y="20" width="680" height="1240" rx="28" fill="#F8FBFF" stroke="#D7E4F3" stroke-width="2"/>
  <rect x="48" y="48" width="624" height="92" rx="22" fill="white" stroke="#D9E5F2"/>
  <rect x="76" y="78" width="220" height="30" rx="10" fill="#0F172A"/>
  <rect x="48" y="168" width="624" height="252" rx="26" fill="white" stroke="#D9E5F2"/>
  <rect x="78" y="204" width="240" height="18" rx="9" fill="#CBD5E1"/>
  <rect x="78" y="240" width="450" height="60" rx="18" fill="#0F172A"/>
  <rect x="78" y="322" width="280" height="16" rx="8" fill="#94A3B8"/>
  <rect x="48" y="448" width="624" height="196" rx="24" fill="white" stroke="#D9E5F2"/>
  <rect x="76" y="476" width="180" height="16" rx="8" fill="#CBD5E1"/>
  <rect x="76" y="514" width="568" height="102" rx="18" fill="#F8FAFC" stroke="#E2E8F0"/>
  <rect x="100" y="540" width="180" height="20" rx="10" fill="#2563EB"/>
  <rect x="100" y="576" width="308" height="14" rx="7" fill="#CBD5E1"/>
  <rect x="48" y="672" width="624" height="540" rx="24" fill="white" stroke="#D9E5F2"/>
  <rect x="76" y="704" width="176" height="18" rx="9" fill="#CBD5E1"/>
  <rect x="76" y="752" width="568" height="118" rx="20" fill="#F8FBFF" stroke="#D7E4F3"/>
  <rect x="76" y="894" width="568" height="118" rx="20" fill="#F4FBF9" stroke="#CDE9E4"/>
  <rect x="76" y="1036" width="568" height="118" rx="20" fill="#FFF7ED" stroke="#FED7AA"/>
  <rect x="104" y="780" width="160" height="14" rx="7" fill="#94A3B8"/>
  <rect x="104" y="812" width="240" height="38" rx="14" fill="#0F172A"/>
  <rect x="104" y="922" width="180" height="14" rx="7" fill="#94A3B8"/>
  <rect x="104" y="954" width="222" height="38" rx="14" fill="#0F766E"/>
  <rect x="104" y="1064" width="168" height="14" rx="7" fill="#94A3B8"/>
  <rect x="104" y="1096" width="208" height="38" rx="14" fill="#EA580C"/>
  <text x="78" y="98" fill="white" font-family="Arial, sans-serif" font-size="24" font-weight="700">Roznamcha</text>
  <text x="78" y="288" fill="white" font-family="Arial, sans-serif" font-size="38" font-weight="700">Daily business controls in one place</text>
</svg>
