<svg width="1280" height="720" viewBox="0 0 1280 720" fill="none" xmlns="http://www.w3.org/2000/svg">
  <rect width="1280" height="720" rx="28" fill="#EEF4FF"/>
  <rect x="24" y="24" width="1232" height="672" rx="24" fill="#F8FBFF" stroke="#D7E4F3" stroke-width="2"/>
  <rect x="56" y="52" width="1168" height="84" rx="20" fill="white" stroke="#D9E5F2"/>
  <rect x="84" y="76" width="220" height="34" rx="10" fill="#0F172A"/>
  <rect x="976" y="74" width="110" height="38" rx="12" fill="#EFF6FF" stroke="#BFDBFE"/>
  <rect x="1102" y="74" width="94" height="38" rx="12" fill="#2563EB"/>
  <rect x="56" y="164" width="748" height="212" rx="24" fill="white" stroke="#D9E5F2"/>
  <rect x="84" y="196" width="260" height="18" rx="9" fill="#CBD5E1"/>
  <rect x="84" y="232" width="444" height="62" rx="18" fill="#0F172A"/>
  <rect x="84" y="314" width="196" height="16" rx="8" fill="#94A3B8"/>
  <rect x="832" y="164" width="392" height="212" rx="24" fill="white" stroke="#D9E5F2"/>
  <rect x="860" y="194" width="180" height="16" rx="8" fill="#CBD5E1"/>
  <rect x="860" y="228" width="336" height="120" rx="18" fill="#F8FAFC" stroke="#E2E8F0"/>
  <rect x="882" y="250" width="136" height="20" rx="10" fill="#2563EB"/>
  <rect x="882" y="284" width="230" height="14" rx="7" fill="#CBD5E1"/>
  <rect x="882" y="312" width="196" height="14" rx="7" fill="#CBD5E1"/>
  <rect x="56" y="404" width="1168" height="252" rx="24" fill="white" stroke="#D9E5F2"/>
  <rect x="84" y="432" width="220" height="18" rx="9" fill="#CBD5E1"/>
  <rect x="84" y="470" width="360" height="136" rx="20" fill="#F8FBFF" stroke="#D7E4F3"/>
  <rect x="476" y="470" width="360" height="136" rx="20" fill="#F4FBF9" stroke="#CDE9E4"/>
  <rect x="868" y="470" width="328" height="136" rx="20" fill="#FFF7ED" stroke="#FED7AA"/>
  <rect x="108" y="496" width="130" height="14" rx="7" fill="#94A3B8"/>
  <rect x="108" y="528" width="210" height="38" rx="14" fill="#0F172A"/>
  <rect x="500" y="496" width="148" height="14" rx="7" fill="#94A3B8"/>
  <rect x="500" y="528" width="190" height="38" rx="14" fill="#0F766E"/>
  <rect x="892" y="496" width="138" height="14" rx="7" fill="#94A3B8"/>
  <rect x="892" y="528" width="172" height="38" rx="14" fill="#EA580C"/>
  <text x="86" y="101" fill="white" font-family="Arial, sans-serif" font-size="24" font-weight="700">Roznamcha</text>
  <text x="84" y="280" fill="white" font-family="Arial, sans-serif" font-size="46" font-weight="700">Accounts, stock, and reports</text>
</svg>
